# xmcd
#
# Track frame offsets:
#  150
#  12442
#  24577
#  33370
#  46862
#  61245
#  81752
#  103280
#  118270
#  130512
#  144882
#  154197
#
# Disc length: 2125 seconds
#
# Revision: 0
# Processed by: cddbd v1.4PL0 Copyright (c) Steve Scherf et al.
# Submitted via: AltoMP3_Maker 3.0
#
DISCID=96084b0c
DTITLE=Tony Rice - Crossings
DYEAR=1900
DGENRE=
TTITLE0=In The Sweet By and By
TTITLE1=I Have Decided To Follow Jesus
TTITLE2=Swing Low Sweet Chariot
TTITLE3=Holy, Holy, Holy
TTITLE4=Living By Faith
TTITLE5=Amazing Grace
TTITLE6=Victory In Jesus
TTITLE7=Sweet Hour of Prayer
TTITLE8=I Feel Like Traveling On
TTITLE9=Just As I Am
TTITLE10=Are You Washed In The Blood
TTITLE11=Doxology
EXTD=
EXTT0=
EXTT1=
EXTT2=
EXTT3=
EXTT4=
EXTT5=
EXTT6=
EXTT7=
EXTT8=
EXTT9=
EXTT10=
EXTT11=
PLAYORDER=
